<?xml version="1.0" encoding="UTF-8" standalone="no"?>
<!-- Created with Inkscape (http://www.inkscape.org/) -->

<svg
   xmlns:osb="http://www.openswatchbook.org/uri/2009/osb"
   xmlns:dc="http://purl.org/dc/elements/1.1/"
   xmlns:cc="http://creativecommons.org/ns#"
   xmlns:rdf="http://www.w3.org/1999/02/22-rdf-syntax-ns#"
   xmlns:svg="http://www.w3.org/2000/svg"
   xmlns="http://www.w3.org/2000/svg"
   xmlns:xlink="http://www.w3.org/1999/xlink"
   xmlns:sodipodi="http://sodipodi.sourceforge.net/DTD/sodipodi-0.dtd"
   xmlns:inkscape="http://www.inkscape.org/namespaces/inkscape"
   width="24.800158mm"
   height="22.540829mm"
   viewBox="0 0 24.800158 22.540829"
   version="1.1"
   id="svg21319"
   inkscape:version="0.92.2 5c3e80d, 2017-08-06"
   sodipodi:docname="crown_color_200.svg">
  <defs
     id="defs21313">
    <linearGradient
       gradientTransform="matrix(1.6451222,0,0,1.8780548,-65.029645,-227.34239)"
       inkscape:collect="always"
       xlink:href="#linearGradient17117"
       id="linearGradient17119-8-7-0"
       x1="67.882362"
       y1="144.60843"
       x2="68.518578"
       y2="144.60843"
       gradientUnits="userSpaceOnUse" />
    <linearGradient
       id="linearGradient17117"
       osb:paint="solid">
      <stop
         style="stop-color:#ffffff;stop-opacity:1;"
         offset="0"
         id="stop17115" />
    </linearGradient>
    <linearGradient
       gradientTransform="matrix(1.7378052,0,0,1.8609815,-72.665395,-225.25817)"
       inkscape:collect="always"
       xlink:href="#linearGradient17117"
       id="linearGradient17119-1-1"
       x1="67.882362"
       y1="144.60843"
       x2="68.518578"
       y2="144.60843"
       gradientUnits="userSpaceOnUse" />
  </defs>
  <sodipodi:namedview
     id="base"
     pagecolor="#ffffff"
     bordercolor="#666666"
     borderopacity="1.0"
     inkscape:pageopacity="0.0"
     inkscape:pageshadow="2"
     inkscape:zoom="0.35"
     inkscape:cx="-263.66926"
     inkscape:cy="-386.65312"
     inkscape:document-units="mm"
     inkscape:current-layer="layer1"
     showgrid="false"
     inkscape:window-width="2560"
     inkscape:window-height="1294"
     inkscape:window-x="0"
     inkscape:window-y="1"
     inkscape:window-maximized="1" />
  <metadata
     id="metadata21316">
    <rdf:RDF>
      <cc:Work
         rdf:about="">
        <dc:format>image/svg+xml</dc:format>
        <dc:type
           rdf:resource="http://purl.org/dc/dcmitype/StillImage" />
        <dc:title></dc:title>
      </cc:Work>
    </rdf:RDF>
  </metadata>
  <g
     inkscape:label="Layer 1"
     inkscape:groupmode="layer"
     id="layer1"
     transform="translate(-39.524396,-23.990534)">
    <path
       style="fill:#ffc25c;fill-opacity:1;stroke:none;stroke-width:0.1274426;stroke-linecap:butt;stroke-linejoin:miter;stroke-miterlimit:4;stroke-dasharray:none;stroke-opacity:1"
       d="m 43.135662,38.030525 6.228766,-0.20272 c -1.328204,-2.59776 -2.44855,-5.71636 -4.151542,-7.37498 0.548084,1.63318 -0.823434,4.55832 -2.077224,7.5777 z"
       id="path4845-3-7-2"
       inkscape:connector-curvature="0"
       sodipodi:nodetypes="cccc" />
    <path
       style="opacity:1;vector-effect:none;fill:#e96e04;fill-opacity:1;stroke:none;stroke-width:0.1274426;stroke-linecap:butt;stroke-linejoin:miter;stroke-miterlimit:4;stroke-dasharray:none;stroke-dashoffset:0;stroke-opacity:1"
       d="m 43.9688,38.211085 6.193208,-0.63068 c -1.545652,-2.49874 -2.92844,-5.53112 -4.767758,-7.06774 0.685634,1.59072 -0.432614,4.60164 -1.42545,7.69842 z"
       id="path4845-0-4"
       inkscape:connector-curvature="0"
       sodipodi:nodetypes="cccc" />
    <path
       style="fill:#fc9c01;fill-opacity:1;stroke:none;stroke-width:0.11227964;stroke-linecap:butt;stroke-linejoin:miter;stroke-miterlimit:4;stroke-dasharray:none;stroke-opacity:1"
       d="m 61.196288,39.820505 v -0.0668 H 42.603704 v 0.0494 l 0.355958,2.68152 c 0.14842,1.41288 4.154862,2.535838 8.94975,2.536798 4.793428,-0.0016 8.717542,-1.124358 8.86594,-2.536798 z"
       id="path4884-4-5"
       inkscape:connector-curvature="0" />
    <path
       style="fill:#ffc25c;fill-opacity:1;stroke:none;stroke-width:0.1274426;stroke-linecap:butt;stroke-linejoin:miter;stroke-miterlimit:4;stroke-dasharray:none;stroke-opacity:1"
       d="m 60.756276,38.249265 -6.228764,-0.20274 c 1.328202,-2.59776 2.44855,-5.71634 4.15154,-7.37498 -0.548082,1.6332 0.823434,4.55834 2.077224,7.57772 z"
       id="path4845-3-9-69-5"
       inkscape:connector-curvature="0"
       sodipodi:nodetypes="cccc" />
    <path
       style="opacity:1;vector-effect:none;fill:#e96e04;fill-opacity:1;stroke:none;stroke-width:0.1274426;stroke-linecap:butt;stroke-linejoin:miter;stroke-miterlimit:4;stroke-dasharray:none;stroke-dashoffset:0;stroke-opacity:1"
       d="m 59.92314,38.429805 -6.19321,-0.63064 c 1.545654,-2.49878 2.928442,-5.53114 4.76776,-7.06774 -0.685636,1.59068 0.432612,4.6016 1.42545,7.69838 z"
       id="path4845-5-5-2"
       inkscape:connector-curvature="0"
       sodipodi:nodetypes="cccc" />
    <path
       style="fill:#ffc929;fill-opacity:1;stroke:none;stroke-width:0.11227964;stroke-linecap:butt;stroke-linejoin:miter;stroke-miterlimit:4;stroke-dasharray:none;stroke-opacity:1"
       d="m 51.879278,25.750465 c 0,0 -3.141094,10.79456 -4.45981,10.88508 -1.318716,0.0906 -6.026766,-5.957 -6.026766,-5.957 l 1.211002,9.12422 v -0.0492 h 18.592584 v 0.0668 l 1.410636,-8.92536 c 0,0 -4.751544,5.96826 -6.267838,5.74038 -1.516292,-0.227858 -4.459808,-10.885058 -4.459808,-10.885058 z"
       id="path4839-3-3"
       inkscape:connector-curvature="0"
       sodipodi:nodetypes="czcccccczc" />
    <ellipse
       style="fill:#fc9c01;fill-opacity:1;stroke:none;stroke-width:0.11227964;stroke-linecap:square;stroke-miterlimit:4;stroke-dasharray:none;stroke-opacity:1;paint-order:normal"
       id="path4847-2-2"
       cx="51.87928"
       cy="25.506865"
       inkscape:transform-center-x="-0.060275252"
       inkscape:transform-center-y="2.5264385e-05"
       rx="1.6874954"
       ry="1.5163306" />
    <path
       style="fill:#fc9c01;fill-opacity:1;stroke:none;stroke-width:0.11227964;stroke-linecap:butt;stroke-linejoin:miter;stroke-miterlimit:4;stroke-dasharray:none;stroke-opacity:1"
       d="m 45.393808,30.512485 c 0.37919,0.87972 0.1986,2.20188 -0.19934,3.72468 1.236898,0.34618 2.06633,0.0602 2.604176,-0.67732 l -0.0046,-0.0226 c -0.740726,-1.2018 -1.517592,-2.28758 -2.400094,-3.02484 z"
       id="path16811-9-3"
       inkscape:connector-curvature="0" />
    <ellipse
       style="fill:#e96e04;fill-opacity:1;stroke:none;stroke-width:0.08322446;stroke-linecap:square;stroke-miterlimit:4;stroke-dasharray:none;stroke-opacity:1;paint-order:normal"
       id="path4847-9-41-1"
       cx="45.166084"
       cy="29.973997"
       inkscape:transform-center-x="-0.044670578"
       inkscape:transform-center-y="2.2506989e-05"
       rx="1.2508134"
       ry="1.1239421" />
    <ellipse
       style="fill:#fc9c01;fill-opacity:1;stroke:none;stroke-width:0.06222328;stroke-linecap:square;stroke-miterlimit:4;stroke-dasharray:none;stroke-opacity:1;paint-order:normal"
       id="path4847-9-3-6-1"
       cx="44.939812"
       cy="29.777006"
       inkscape:transform-center-x="-0.033398262"
       inkscape:transform-center-y="2.1656099e-05"
       rx="0.93517852"
       ry="0.84032232" />
    <ellipse
       style="fill:#ffc25c;fill-opacity:1;stroke:none;stroke-width:0.04368736;stroke-linecap:square;stroke-miterlimit:4;stroke-dasharray:none;stroke-opacity:1;paint-order:normal"
       id="path4847-9-3-8-6-9"
       cx="44.730995"
       cy="29.623777"
       inkscape:transform-center-x="-0.02344036"
       inkscape:transform-center-y="2.363277e-06"
       rx="0.65659451"
       ry="0.58999532" />
    <path
       style="fill:#fc9c01;fill-opacity:1;stroke:none;stroke-width:0.11227964;stroke-linecap:butt;stroke-linejoin:miter;stroke-miterlimit:4;stroke-dasharray:none;stroke-opacity:1"
       d="m 58.498132,30.731225 c -0.379192,0.87972 -0.1986,2.20188 0.19934,3.72468 -1.2369,0.34616 -2.066332,0.0602 -2.60418,-0.67734 l 0.0046,-0.0226 c 0.740728,-1.20176 1.517594,-2.28756 2.400099,-3.0248 z"
       id="path16811-7-02-8"
       inkscape:connector-curvature="0" />
    <path
       style="fill:#fc9c01;fill-opacity:1;stroke:none;stroke-width:0.10059356;stroke-linecap:butt;stroke-linejoin:miter;stroke-miterlimit:4;stroke-dasharray:none;stroke-opacity:1"
       d="m 51.879378,25.750065 c 0,0 -2.021668,10.85528 -4.355692,11.21504 -2.01622,0.23176 -5.910898,-4.87528 -5.910898,-4.87528 l 1.180334,7.41886 h -0.0084 v 0.0444 l 0.349112,2.44176 c 0.14558,1.2866 4.074984,2.30938 8.777683,2.31022 4.701269,-0.0013 8.549944,-1.02402 8.695489,-2.31022 l 0.412836,-2.42516 v -0.0524 h 0.0158 v 0.055 l 1.353386,-7.30458 c 0,0 -4.171822,5.05778 -6.1172,4.69796 -2.49992,-0.462344 -4.39244,-11.215064 -4.39244,-11.215064 z"
       id="path4839-1-3-0"
       inkscape:connector-curvature="0"
       sodipodi:nodetypes="ccccccccccccccccc" />
    <ellipse
       style="fill:#ffc25c;fill-opacity:1;stroke:none;stroke-width:0.08077712;stroke-linecap:square;stroke-miterlimit:4;stroke-dasharray:none;stroke-opacity:1;paint-order:normal"
       id="path4847-3-3-9"
       cx="51.561287"
       cy="25.232237"
       inkscape:transform-center-x="-0.043357284"
       inkscape:transform-center-y="3.1518893e-05"
       rx="1.2140313"
       ry="1.0908909" />
    <ellipse
       style="fill:#ffffff;fill-opacity:1;stroke:none;stroke-width:0.05064426;stroke-linecap:square;stroke-miterlimit:4;stroke-dasharray:none;stroke-opacity:1;paint-order:normal"
       id="path4847-3-5-5-5"
       cx="51.199043"
       cy="24.945036"
       inkscape:transform-center-x="-0.027177444"
       inkscape:transform-center-y="4.3136309e-05"
       rx="0.7611528"
       ry="0.68394816" />
    <path
       style="fill:#ffc25c;fill-opacity:1;stroke:none;stroke-width:0.08170178;stroke-linecap:butt;stroke-linejoin:miter;stroke-miterlimit:4;stroke-dasharray:none;stroke-opacity:1"
       d="m 51.84268,27.649725 c 0,0 -1.843092,9.75008 -3.970944,10.0104 -1.838128,0.1676 -5.87092,-4.15044 -5.87092,-4.15044 l 0.479374,3.02656 h -0.0074 v 0.032 l 0.318274,1.6585 c 0.13272,0.931 4.793866,2.72332 9.081174,2.72394 4.285996,-10e-4 9.056528,-1.73908 9.189212,-2.6698 l 0.376366,-1.64646 v -0.0376 h 0.0144 v 0.0394 l 0.451514,-2.9439 c 0,0 -4.2828,4.22836 -6.056338,3.968 -2.279096,-0.334538 -4.004448,-10.010418 -4.004448,-10.010418 z"
       id="path4839-1-4-8-2"
       inkscape:connector-curvature="0"
       sodipodi:nodetypes="ccccccccccccccccc" />
    <path
       style="fill:#e96e04;fill-opacity:1;stroke:none;stroke-width:0.11843602;stroke-linecap:butt;stroke-linejoin:miter;stroke-miterlimit:4;stroke-dasharray:none;stroke-opacity:1"
       d="m 61.180844,39.817625 v -0.0744 c -7.03682,2.78462 -13.02688,2.09626 -18.592584,0 v 0.0546 l 0.355958,2.98362 c 0.14844,1.57208 4.154864,2.82158 8.949752,2.82262 4.793426,-0.0016 8.71754,-1.25102 8.865938,-2.82262 z"
       id="path4884-9-1-4"
       inkscape:connector-curvature="0"
       sodipodi:nodetypes="cccccccc" />
    <path
       style="fill:#ffc25c;fill-opacity:1;stroke:none;stroke-width:0.11843602;stroke-linecap:butt;stroke-linejoin:miter;stroke-miterlimit:4;stroke-dasharray:none;stroke-opacity:1"
       d="m 61.071016,40.140845 v 0 c -7.036818,2.78458 -12.819708,2.1047 -18.385412,0.008 v 0 l 0.237306,3.03646 c 0.14842,1.57208 4.154862,2.821578 8.94975,2.82262 4.793428,-0.0016 8.717544,-1.25102 8.865943,-2.82262 z"
       id="path4884-9-2-8-2"
       inkscape:connector-curvature="0"
       sodipodi:nodetypes="cccccccc" />
    <path
       style="fill:#fc9c01;fill-opacity:1;stroke:none;stroke-width:0.11843602;stroke-linecap:butt;stroke-linejoin:miter;stroke-miterlimit:4;stroke-dasharray:none;stroke-opacity:1"
       d="m 61.070396,40.664285 v 0 c -7.036816,2.7846 -12.819708,2.10472 -18.38541,0.008 v 0 l 0.237304,3.03646 c 0.14842,1.572078 4.154864,2.821578 8.949752,2.822618 4.793426,-0.0016 8.717542,-1.25102 8.86594,-2.822618 z"
       id="path4884-9-2-2-1-3"
       inkscape:connector-curvature="0"
       sodipodi:nodetypes="cccccccc" />
    <path
       style="fill:#ffc25c;fill-opacity:1;stroke:none;stroke-width:0.09089318;stroke-linecap:butt;stroke-linejoin:miter;stroke-miterlimit:4;stroke-dasharray:none;stroke-opacity:1"
       d="m 58.135052,42.108405 v 0 c -5.516274,2.09212 -10.049574,1.10782 -14.412612,-0.46572 v 0 l 0.18602,2.28134 c 0.11636,1.18114 3.25706,2.119898 7.015846,2.120678 3.757646,-0.0012 6.833822,-0.466438 6.950154,-1.647238 z"
       id="path4884-9-2-2-9-13-5"
       inkscape:connector-curvature="0"
       sodipodi:nodetypes="cccccccc" />
    <ellipse
       style="fill:#fc9c01;fill-opacity:1;stroke:none;stroke-width:0.11227964;stroke-linecap:square;stroke-miterlimit:4;stroke-dasharray:none;stroke-opacity:1;paint-order:normal"
       id="path4847-1-07-8"
       cx="62.637058"
       cy="30.110044"
       inkscape:transform-center-x="-0.060262988"
       inkscape:transform-center-y="2.5262605e-05"
       rx="1.6874954"
       ry="1.5163306" />
    <ellipse
       style="fill:#ffc25c;fill-opacity:1;stroke:none;stroke-width:0.08077712;stroke-linecap:square;stroke-miterlimit:4;stroke-dasharray:none;stroke-opacity:1;paint-order:normal"
       id="path4847-3-58-2-4"
       cx="62.319069"
       cy="29.835386"
       inkscape:transform-center-x="-0.043358922"
       rx="1.2140313"
       ry="1.0908909" />
    <ellipse
       style="fill:#ffffff;fill-opacity:1;stroke:none;stroke-width:0.05064426;stroke-linecap:square;stroke-miterlimit:4;stroke-dasharray:none;stroke-opacity:1;paint-order:normal"
       id="path4847-3-5-8-3-51"
       cx="61.956837"
       cy="29.548185"
       inkscape:transform-center-x="-0.027180438"
       inkscape:transform-center-y="1.2616951e-05"
       rx="0.7611528"
       ry="0.68394816" />
    <ellipse
       style="fill:#fc9c01;fill-opacity:1;stroke:none;stroke-width:0.11227964;stroke-linecap:square;stroke-miterlimit:4;stroke-dasharray:none;stroke-opacity:1;paint-order:normal"
       id="path4847-1-0-5-1"
       cx="41.211891"
       cy="29.730925"
       inkscape:transform-center-x="-0.060258164"
       rx="1.6874954"
       ry="1.5163306"
       inkscape:transform-center-y="5.755533e-06" />
    <ellipse
       style="fill:#ffc25c;fill-opacity:1;stroke:none;stroke-width:0.08077712;stroke-linecap:square;stroke-miterlimit:4;stroke-dasharray:none;stroke-opacity:1;paint-order:normal"
       id="path4847-3-58-4-8-0"
       cx="40.89389"
       cy="29.456297"
       inkscape:transform-center-x="-0.04334647"
       inkscape:transform-center-y="1.2629376e-05"
       rx="1.2140313"
       ry="1.0908909" />
    <ellipse
       style="fill:#ffffff;fill-opacity:1;stroke:none;stroke-width:0.05064426;stroke-linecap:square;stroke-miterlimit:4;stroke-dasharray:none;stroke-opacity:1;paint-order:normal"
       id="path4847-3-5-8-0-3-4"
       cx="40.53167"
       cy="29.169096"
       inkscape:transform-center-x="-0.027175614"
       inkscape:transform-center-y="2.4246791e-05"
       rx="0.7611528"
       ry="0.68394816" />
    <ellipse
       style="fill:#e96e04;fill-opacity:1;stroke:none;stroke-width:0.08322446;stroke-linecap:square;stroke-miterlimit:4;stroke-dasharray:none;stroke-opacity:1;paint-order:normal"
       id="path4847-9-6-5-1"
       cx="58.538872"
       cy="30.082914"
       inkscape:transform-center-x="-0.044679504"
       inkscape:transform-center-y="4.1145066e-06"
       rx="1.2508134"
       ry="1.1239421" />
    <ellipse
       style="fill:#fc9c01;fill-opacity:1;stroke:none;stroke-width:0.06222328;stroke-linecap:square;stroke-miterlimit:4;stroke-dasharray:none;stroke-opacity:1;paint-order:normal"
       id="path4847-9-3-4-6-6"
       cx="58.312584"
       cy="29.885923"
       inkscape:transform-center-x="-0.0333843"
       inkscape:transform-center-y="3.2636158e-06"
       rx="0.93517852"
       ry="0.84032232" />
    <ellipse
       style="fill:#ffc25c;fill-opacity:1;stroke:none;stroke-width:0.04368736;stroke-linecap:square;stroke-miterlimit:4;stroke-dasharray:none;stroke-opacity:1;paint-order:normal"
       id="path4847-9-3-8-3-1-1"
       cx="58.103794"
       cy="29.732695"
       inkscape:transform-center-x="-0.023456914"
       inkscape:transform-center-y="-1.6029207e-05"
       rx="0.65659451"
       ry="0.58999532" />
    <path
       style="fill:url(#linearGradient17119-1-1);fill-opacity:1;stroke:none;stroke-width:0.02697508;stroke-linecap:butt;stroke-linejoin:miter;stroke-miterlimit:4;stroke-dasharray:none;stroke-opacity:1"
       d="m 45.314936,42.177945 0.15806,3.046638 0.919588,0.30772 -0.14368,-3.077378 z"
       id="path17113-79-4"
       inkscape:connector-curvature="0" />
    <path
       style="fill:url(#linearGradient17119-8-7-0);fill-opacity:1;stroke:none;stroke-width:0.026366;stroke-linecap:butt;stroke-linejoin:miter;stroke-miterlimit:4;stroke-dasharray:none;stroke-opacity:1"
       d="m 46.658398,42.593405 0.14962,3.02844 0.626278,0.1412 -0.337178,-3.05946 z"
       id="path17113-7-2-5"
       inkscape:connector-curvature="0"
       sodipodi:nodetypes="ccccc" />
  </g>
</svg>
