<?xml version="1.0" encoding="UTF-8" standalone="no"?>
<!-- Created with Inkscape (http://www.inkscape.org/) -->

<svg
   xmlns:osb="http://www.openswatchbook.org/uri/2009/osb"
   xmlns:dc="http://purl.org/dc/elements/1.1/"
   xmlns:cc="http://creativecommons.org/ns#"
   xmlns:rdf="http://www.w3.org/1999/02/22-rdf-syntax-ns#"
   xmlns:svg="http://www.w3.org/2000/svg"
   xmlns="http://www.w3.org/2000/svg"
   xmlns:xlink="http://www.w3.org/1999/xlink"
   xmlns:sodipodi="http://sodipodi.sourceforge.net/DTD/sodipodi-0.dtd"
   xmlns:inkscape="http://www.inkscape.org/namespaces/inkscape"
   width="22.755713mm"
   height="18.802057mm"
   viewBox="0 0 22.755713 18.802057"
   version="1.1"
   id="svg20652"
   inkscape:version="0.92.2 5c3e80d, 2017-08-06"
   sodipodi:docname="crown_black_200.svg">
  <defs
     id="defs20646">
    <linearGradient
       gradientTransform="matrix(1.6451222,0,0,1.8780548,-9.5469905,-229.35605)"
       inkscape:collect="always"
       xlink:href="#linearGradient17117"
       id="linearGradient17119-8-7-6-7"
       x1="67.882362"
       y1="144.60843"
       x2="68.518578"
       y2="144.60843"
       gradientUnits="userSpaceOnUse" />
    <linearGradient
       id="linearGradient17117"
       osb:paint="solid">
      <stop
         style="stop-color:#ffffff;stop-opacity:1;"
         offset="0"
         id="stop17115" />
    </linearGradient>
    <linearGradient
       gradientTransform="matrix(1.7378052,0,0,1.8609815,-17.182751,-227.27181)"
       inkscape:collect="always"
       xlink:href="#linearGradient17117"
       id="linearGradient17119-1-7-2"
       x1="67.882362"
       y1="144.60843"
       x2="68.518578"
       y2="144.60843"
       gradientUnits="userSpaceOnUse" />
  </defs>
  <sodipodi:namedview
     id="base"
     pagecolor="#ffffff"
     bordercolor="#666666"
     borderopacity="1.0"
     inkscape:pageopacity="0.0"
     inkscape:pageshadow="2"
     inkscape:zoom="0.35"
     inkscape:cx="-474.28276"
     inkscape:cy="-393.4684"
     inkscape:document-units="mm"
     inkscape:current-layer="layer1"
     showgrid="false"
     inkscape:window-width="2560"
     inkscape:window-height="1294"
     inkscape:window-x="0"
     inkscape:window-y="1"
     inkscape:window-maximized="1" />
  <metadata
     id="metadata20649">
    <rdf:RDF>
      <cc:Work
         rdf:about="">
        <dc:format>image/svg+xml</dc:format>
        <dc:type
           rdf:resource="http://purl.org/dc/dcmitype/StillImage" />
        <dc:title></dc:title>
      </cc:Work>
    </rdf:RDF>
  </metadata>
  <g
     inkscape:label="Layer 1"
     inkscape:groupmode="layer"
     id="layer1"
     transform="translate(-95.249219,-25.926094)">
    <path
       style="fill:#000000;fill-opacity:1;stroke:none;stroke-width:0.10603044;stroke-linecap:butt;stroke-linejoin:miter;stroke-miterlimit:4;stroke-dasharray:none;stroke-opacity:1"
       d="m 106.64464,28.782292 c 0,0 -1.6221,4.7378 -2.92694,7.07596 -0.25076,-0.37224 -0.5016,-0.7443 -0.75862,-1.09904 v -0.002 c -0.0274,-0.038 -0.0562,-0.0728 -0.0838,-0.1102 -0.1346,-0.183201 -0.26932,-0.364561 -0.40722,-0.538501 -0.0626,-0.0792 -0.1276,-0.1518 -0.1912,-0.22862 -0.1096,-0.1322 -0.21832,-0.26691 -0.33072,-0.39111 -0.1182,-0.131 -0.24086,-0.24858 -0.36278,-0.36906 -0.0656,-0.0646 -0.1286,-0.136 -0.1954,-0.1974 -0.1922,-0.1768 -0.39076,-0.3404 -0.59428,-0.4851 0.0278,0.0548 0.047,0.1158 0.0682,0.1752 -0.0776,-0.0726 -0.151,-0.1538 -0.2315,-0.22054 0.29034,0.7359 -0.0232,1.81756 -0.555,3.0511 -1.441818,-1.302829 -2.890778,-2.87819 -2.890778,-2.87819 0.36172,2.319201 0.72346,4.638401 1.0852,6.957601 -0.002,-6.35e-4 -0.004,-0.0018 -0.006,-0.002 0.0218,0.247061 0.0644,0.502561 0.094,0.71374 -0.002,-5.82e-4 -0.004,-0.0018 -0.008,-0.002 0.0714,0.7768 0.1426,1.5536 0.21394,2.33042 0.134,1.20632 3.748578,2.1648 8.073918,2.1656 4.32402,-0.0012 7.86358,-0.95966 7.99744,-2.1656 l 0.29972,-2.33506 c -0.002,5.82e-4 -0.004,0.0018 -0.008,0.002 l 0.121,-0.649899 1.27228,-6.848481 c 0,0 -1.493,1.58718 -2.99724,2.85846 -0.5258,-1.224152 -0.83426,-2.298752 -0.5457,-3.030212 -0.0804,0.0666 -0.1538,0.148 -0.2315,0.22054 0.0212,-0.059 0.0404,-0.1192 0.0682,-0.174 h -0.001 c -0.20412,0.145 -0.40164,0.30784 -0.59428,0.48512 -0.0792,0.0728 -0.154,0.157 -0.23152,0.23442 -0.1066,0.1066 -0.21558,0.20908 -0.31936,0.3238 -0.146,0.161 -0.28766,0.33402 -0.4289,0.50832 -0.0296,0.0366 -0.0606,0.0696 -0.09,0.1068 -0.1474,0.1856 -0.29156,0.37944 -0.43512,0.57564 -0.0214,0.0292 -0.0438,0.0564 -0.0652,0.0858 v 0.002 c -0.26901,0.37131 -0.53245,0.76013 -0.79477,1.15009 -1.36732,-2.242988 -3.01068,-7.295268 -3.01068,-7.295268 z"
       id="path4845-3-5-2-0"
       inkscape:connector-curvature="0"
       sodipodi:nodetypes="cccccccccccccccccccccccccccccccccccccccccc" />
    <ellipse
       style="fill:#000000;fill-opacity:1;stroke:none;stroke-width:0.11898008;stroke-linecap:square;stroke-miterlimit:4;stroke-dasharray:none;stroke-opacity:1;paint-order:normal"
       id="path4847-1-07-1-1"
       cx="96.936714"
       cy="31.676838"
       inkscape:transform-center-x="-0.060259173"
       inkscape:transform-center-y="2.6723421e-05"
       rx="1.6874954"
       ry="1.702709" />
    <ellipse
       style="fill:#000000;fill-opacity:1;stroke:none;stroke-width:0.0855976;stroke-linecap:square;stroke-miterlimit:4;stroke-dasharray:none;stroke-opacity:1;paint-order:normal"
       id="path4847-3-58-2-0-5"
       cx="96.618721"
       cy="31.368425"
       inkscape:transform-center-x="-0.043355107"
       rx="1.2140313"
       ry="1.2249765"
       inkscape:transform-center-y="5.5547046e-06" />
    <ellipse
       style="fill:#ffffff;fill-opacity:1;stroke:none;stroke-width:0.05366652;stroke-linecap:square;stroke-miterlimit:4;stroke-dasharray:none;stroke-opacity:1;paint-order:normal"
       id="path4847-3-5-8-3-5-05"
       cx="96.256493"
       cy="31.045918"
       inkscape:transform-center-x="-0.027176623"
       inkscape:transform-center-y="1.1555809e-05"
       rx="0.7611528"
       ry="0.76801491" />
    <ellipse
       style="fill:#000000;fill-opacity:1;stroke:none;stroke-width:0.08819098;stroke-linecap:square;stroke-miterlimit:4;stroke-dasharray:none;stroke-opacity:1;paint-order:normal"
       id="path4847-9-6-5-4-6"
       cx="112.64635"
       cy="31.862537"
       inkscape:transform-center-x="-0.04466806"
       rx="1.2508134"
       ry="1.2620901" />
    <ellipse
       style="fill:#000000;fill-opacity:1;stroke:none;stroke-width:0.06593654;stroke-linecap:square;stroke-miterlimit:4;stroke-dasharray:none;stroke-opacity:1;paint-order:normal"
       id="path4847-9-3-4-6-2-4"
       cx="112.42008"
       cy="31.641344"
       inkscape:transform-center-x="-0.033380485"
       inkscape:transform-center-y="1.2360642e-05"
       rx="0.93517852"
       ry="0.94360965" />
    <ellipse
       style="fill:#000000;fill-opacity:1;stroke:none;stroke-width:0.04629446;stroke-linecap:square;stroke-miterlimit:4;stroke-dasharray:none;stroke-opacity:1;paint-order:normal"
       id="path4847-9-3-8-3-1-6-5"
       cx="112.21128"
       cy="31.469288"
       inkscape:transform-center-x="-0.023453099"
       inkscape:transform-center-y="-4.7007924e-06"
       rx="0.65659451"
       ry="0.66251409" />
    <ellipse
       style="fill:#000000;fill-opacity:1;stroke:none;stroke-width:0.08819098;stroke-linecap:square;stroke-miterlimit:4;stroke-dasharray:none;stroke-opacity:1;paint-order:normal"
       id="path4847-9-6-5-7-2"
       cx="100.83932"
       cy="31.639696"
       inkscape:transform-center-x="-0.044675689"
       inkscape:transform-center-y="1.0260347e-05"
       rx="1.2508134"
       ry="1.2620901" />
    <ellipse
       style="fill:#000000;fill-opacity:1;stroke:none;stroke-width:0.06593654;stroke-linecap:square;stroke-miterlimit:4;stroke-dasharray:none;stroke-opacity:1;paint-order:normal"
       id="path4847-9-3-4-6-9-3"
       cx="100.61304"
       cy="31.418474"
       inkscape:transform-center-x="-0.033372856"
       inkscape:transform-center-y="-8.7190345e-06"
       rx="0.93517852"
       ry="0.94360965" />
    <ellipse
       style="fill:#000000;fill-opacity:1;stroke:none;stroke-width:0.04629446;stroke-linecap:square;stroke-miterlimit:4;stroke-dasharray:none;stroke-opacity:1;paint-order:normal"
       id="path4847-9-3-8-3-1-5-0"
       cx="100.40424"
       cy="31.246418"
       inkscape:transform-center-x="-0.023453099"
       inkscape:transform-center-y="-2.5780469e-05"
       rx="0.65659451"
       ry="0.66251409" />
    <ellipse
       style="fill:#000000;fill-opacity:1;stroke:none;stroke-width:0.11898008;stroke-linecap:square;stroke-miterlimit:4;stroke-dasharray:none;stroke-opacity:1;paint-order:normal"
       id="path4847-1-07-1-9-6"
       cx="106.594"
       cy="27.628803"
       inkscape:transform-center-x="-0.060259173"
       inkscape:transform-center-y="4.0558369e-05"
       rx="1.6874954"
       ry="1.702709" />
    <ellipse
       style="fill:#000000;fill-opacity:1;stroke:none;stroke-width:0.0855976;stroke-linecap:square;stroke-miterlimit:4;stroke-dasharray:none;stroke-opacity:1;paint-order:normal"
       id="path4847-3-58-2-0-1-4"
       cx="106.27602"
       cy="27.320362"
       inkscape:transform-center-x="-0.043347478"
       rx="1.2140313"
       ry="1.2249765"
       inkscape:transform-center-y="-1.1127927e-05" />
    <ellipse
       style="fill:#ffffff;fill-opacity:1;stroke:none;stroke-width:0.05366652;stroke-linecap:square;stroke-miterlimit:4;stroke-dasharray:none;stroke-opacity:1;paint-order:normal"
       id="path4847-3-5-8-3-5-0-7"
       cx="105.91378"
       cy="26.997883"
       inkscape:transform-center-x="-0.027176623"
       inkscape:transform-center-y="2.5390755e-05"
       rx="0.7611528"
       ry="0.76801491" />
    <ellipse
       style="fill:#000000;fill-opacity:1;stroke:none;stroke-width:0.11898008;stroke-linecap:square;stroke-miterlimit:4;stroke-dasharray:none;stroke-opacity:1;paint-order:normal"
       id="path4847-1-07-1-8-1"
       cx="116.31744"
       cy="31.491137"
       inkscape:transform-center-x="-0.060259173"
       inkscape:transform-center-y="2.8876905e-05"
       rx="1.6874954"
       ry="1.702709" />
    <ellipse
       style="fill:#000000;fill-opacity:1;stroke:none;stroke-width:0.0855976;stroke-linecap:square;stroke-miterlimit:4;stroke-dasharray:none;stroke-opacity:1;paint-order:normal"
       id="path4847-3-58-2-0-9-1"
       cx="115.99944"
       cy="31.182728"
       inkscape:transform-center-x="-0.043355107"
       rx="1.2140313"
       ry="1.2249765"
       inkscape:transform-center-y="7.708187e-06" />
    <ellipse
       style="fill:#ffffff;fill-opacity:1;stroke:none;stroke-width:0.05366652;stroke-linecap:square;stroke-miterlimit:4;stroke-dasharray:none;stroke-opacity:1;paint-order:normal"
       id="path4847-3-5-8-3-5-9-8"
       cx="115.63721"
       cy="30.860218"
       inkscape:transform-center-x="-0.027168994"
       inkscape:transform-center-y="1.3709292e-05"
       rx="0.7611528"
       ry="0.76801491" />
    <path
       style="fill:url(#linearGradient17119-1-7-2);fill-opacity:1;stroke:none;stroke-width:0.02697508;stroke-linecap:butt;stroke-linejoin:miter;stroke-miterlimit:4;stroke-dasharray:none;stroke-opacity:1"
       d="m 100.79758,40.164312 0.158,3.04664 0.91958,0.30772 -0.1436,-3.07738 z"
       id="path17113-79-9-5"
       inkscape:connector-curvature="0" />
    <path
       style="fill:url(#linearGradient17119-8-7-6-7);fill-opacity:1;stroke:none;stroke-width:0.026366;stroke-linecap:butt;stroke-linejoin:miter;stroke-miterlimit:4;stroke-dasharray:none;stroke-opacity:1"
       d="m 102.14104,40.579772 0.1496,3.02844 0.62628,0.1412 -0.33718,-3.05946 z"
       id="path17113-7-2-0-2"
       inkscape:connector-curvature="0"
       sodipodi:nodetypes="ccccc" />
  </g>
</svg>
