<?xml version="1.0" encoding="UTF-8" standalone="no"?>
<!-- Created with Inkscape (http://www.inkscape.org/) -->

<svg
   xmlns:osb="http://www.openswatchbook.org/uri/2009/osb"
   xmlns:dc="http://purl.org/dc/elements/1.1/"
   xmlns:cc="http://creativecommons.org/ns#"
   xmlns:rdf="http://www.w3.org/1999/02/22-rdf-syntax-ns#"
   xmlns:svg="http://www.w3.org/2000/svg"
   xmlns="http://www.w3.org/2000/svg"
   xmlns:xlink="http://www.w3.org/1999/xlink"
   xmlns:sodipodi="http://sodipodi.sourceforge.net/DTD/sodipodi-0.dtd"
   xmlns:inkscape="http://www.inkscape.org/namespaces/inkscape"
   width="12.400081mm"
   height="17.758858mm"
   viewBox="0 0 12.400081 17.758858"
   version="1.1"
   id="svg18383"
   inkscape:version="0.92.2 5c3e80d, 2017-08-06"
   sodipodi:docname="kd_color.svg">
  <defs
     id="defs18377">
    <linearGradient
       gradientTransform="matrix(0.82256108,0,0,0.93902738,42.820554,-11.414941)"
       inkscape:collect="always"
       xlink:href="#linearGradient17117"
       id="linearGradient17119-8-7"
       x1="67.882362"
       y1="144.60843"
       x2="68.518578"
       y2="144.60843"
       gradientUnits="userSpaceOnUse" />
    <linearGradient
       id="linearGradient17117"
       osb:paint="solid">
      <stop
         style="stop-color:#ffffff;stop-opacity:1;"
         offset="0"
         id="stop17115" />
    </linearGradient>
    <linearGradient
       gradientTransform="matrix(0.86890258,0,0,0.93049076,39.002684,-10.372831)"
       inkscape:collect="always"
       xlink:href="#linearGradient17117"
       id="linearGradient17119-1"
       x1="67.882362"
       y1="144.60843"
       x2="68.518578"
       y2="144.60843"
       gradientUnits="userSpaceOnUse" />
  </defs>
  <sodipodi:namedview
     id="base"
     pagecolor="#ffffff"
     bordercolor="#666666"
     borderopacity="1.0"
     inkscape:pageopacity="0.0"
     inkscape:pageshadow="2"
     inkscape:zoom="7.9195959"
     inkscape:cx="-4.7214786"
     inkscape:cy="24.648749"
     inkscape:document-units="mm"
     inkscape:current-layer="layer1"
     showgrid="false"
     inkscape:window-width="2560"
     inkscape:window-height="1294"
     inkscape:window-x="0"
     inkscape:window-y="1"
     inkscape:window-maximized="1" />
  <metadata
     id="metadata18380">
    <rdf:RDF>
      <cc:Work
         rdf:about="">
        <dc:format>image/svg+xml</dc:format>
        <dc:type
           rdf:resource="http://purl.org/dc/dcmitype/StillImage" />
        <dc:title></dc:title>
      </cc:Work>
    </rdf:RDF>
  </metadata>
  <g
     inkscape:label="Layer 1"
     inkscape:groupmode="layer"
     id="layer1"
     transform="translate(-95.097605,-114.25152)">
    <text
       xml:space="preserve"
       style="font-style:normal;font-variant:normal;font-weight:bold;font-stretch:normal;font-size:10.58333302px;line-height:1.25;font-family:Roboto;-inkscape-font-specification:'Roboto Bold';letter-spacing:0px;word-spacing:0px;fill:#000000;fill-opacity:1;stroke:none;stroke-width:0.26458332"
       x="100.40894"
       y="131.90703"
       id="text17145"><tspan
         sodipodi:role="line"
         id="tspan17143"
         x="100.40894"
         y="131.90703"
         style="stroke-width:0.26458332">d</tspan></text>
    <text
       xml:space="preserve"
       style="font-style:normal;font-variant:normal;font-weight:bold;font-stretch:normal;font-size:10.58333302px;line-height:1.25;font-family:Roboto;-inkscape-font-specification:'Roboto Bold';letter-spacing:0px;word-spacing:0px;fill:#000000;fill-opacity:1;stroke:none;stroke-width:0.26458332"
       x="96.044441"
       y="131.9538"
       id="text17149"><tspan
         sodipodi:role="line"
         id="tspan17147"
         x="96.044441"
         y="131.9538"
         style="stroke-width:0.26458332">k</tspan></text>
    <path
       style="fill:#ffc25c;fill-opacity:1;stroke:none;stroke-width:0.0637213;stroke-linecap:butt;stroke-linejoin:miter;stroke-miterlimit:4;stroke-dasharray:none;stroke-opacity:1"
       d="m 96.903214,121.27152 3.114376,-0.10136 c -0.664096,-1.29888 -1.224276,-2.85818 -2.075766,-3.68749 0.27404,0.81659 -0.41172,2.27916 -1.03861,3.78885 z"
       id="path4845-3-7"
       inkscape:connector-curvature="0"
       sodipodi:nodetypes="cccc" />
    <path
       style="opacity:1;vector-effect:none;fill:#e96e04;fill-opacity:1;stroke:none;stroke-width:0.0637213;stroke-linecap:butt;stroke-linejoin:miter;stroke-miterlimit:4;stroke-dasharray:none;stroke-dashoffset:0;stroke-opacity:1"
       d="m 97.319774,121.3618 3.096606,-0.31534 c -0.772826,-1.24937 -1.464216,-2.76556 -2.383876,-3.53387 0.34282,0.79536 -0.21631,2.30082 -0.71273,3.84921 z"
       id="path4845-0"
       inkscape:connector-curvature="0"
       sodipodi:nodetypes="cccc" />
    <path
       style="fill:#fc9c01;fill-opacity:1;stroke:none;stroke-width:0.05613982;stroke-linecap:butt;stroke-linejoin:miter;stroke-miterlimit:4;stroke-dasharray:none;stroke-opacity:1"
       d="m 105.93352,122.16651 v -0.0334 h -9.296286 v 0.0247 l 0.17798,1.34076 c 0.0742,0.70644 2.07743,1.26792 4.474866,1.2684 2.39671,-8.2e-4 4.35877,-0.56218 4.43297,-1.2684 z"
       id="path4884-4"
       inkscape:connector-curvature="0" />
    <path
       style="fill:#ffc25c;fill-opacity:1;stroke:none;stroke-width:0.0637213;stroke-linecap:butt;stroke-linejoin:miter;stroke-miterlimit:4;stroke-dasharray:none;stroke-opacity:1"
       d="m 105.71351,121.38089 -3.11438,-0.10137 c 0.6641,-1.29888 1.22428,-2.85817 2.07577,-3.68749 -0.27404,0.8166 0.41172,2.27917 1.03861,3.78886 z"
       id="path4845-3-9-69"
       inkscape:connector-curvature="0"
       sodipodi:nodetypes="cccc" />
    <path
       style="opacity:1;vector-effect:none;fill:#e96e04;fill-opacity:1;stroke:none;stroke-width:0.0637213;stroke-linecap:butt;stroke-linejoin:miter;stroke-miterlimit:4;stroke-dasharray:none;stroke-dashoffset:0;stroke-opacity:1"
       d="m 105.29694,121.47116 -3.0966,-0.31532 c 0.77283,-1.24939 1.46422,-2.76557 2.38388,-3.53387 -0.34282,0.79534 0.21631,2.3008 0.71272,3.84919 z"
       id="path4845-5-5"
       inkscape:connector-curvature="0"
       sodipodi:nodetypes="cccc" />
    <path
       style="fill:#ffc929;fill-opacity:1;stroke:none;stroke-width:0.05613982;stroke-linecap:butt;stroke-linejoin:miter;stroke-miterlimit:4;stroke-dasharray:none;stroke-opacity:1"
       d="m 101.27501,115.13149 c 0,0 -1.570536,5.39728 -2.229896,5.44254 -0.65936,0.0453 -3.01338,-2.9785 -3.01338,-2.9785 l 0.6055,4.56211 v -0.0246 h 9.296286 v 0.0334 l 0.70532,-4.46268 c 0,0 -2.37578,2.98413 -3.13392,2.87019 -0.75815,-0.11393 -2.22991,-5.44253 -2.22991,-5.44253 z"
       id="path4839-3"
       inkscape:connector-curvature="0"
       sodipodi:nodetypes="czcccccczc" />
    <ellipse
       style="fill:#fc9c01;fill-opacity:1;stroke:none;stroke-width:0.05613982;stroke-linecap:square;stroke-miterlimit:4;stroke-dasharray:none;stroke-opacity:1;paint-order:normal"
       id="path4847-2"
       cx="101.27503"
       cy="115.00969"
       inkscape:transform-center-x="-0.030137626"
       inkscape:transform-center-y="1.248866e-05"
       rx="0.84374768"
       ry="0.7581653" />
    <path
       style="fill:#fc9c01;fill-opacity:1;stroke:none;stroke-width:0.05613982;stroke-linecap:butt;stroke-linejoin:miter;stroke-miterlimit:4;stroke-dasharray:none;stroke-opacity:1"
       d="m 98.032284,117.5125 c 0.18959,0.43986 0.0993,1.10094 -0.0997,1.86234 0.61845,0.17309 1.03316,0.0301 1.30209,-0.33866 l -0.002,-0.0113 c -0.37037,-0.6009 -0.7588,-1.14379 -1.20005,-1.51242 z"
       id="path16811-9"
       inkscape:connector-curvature="0" />
    <ellipse
       style="fill:#e96e04;fill-opacity:1;stroke:none;stroke-width:0.04161223;stroke-linecap:square;stroke-miterlimit:4;stroke-dasharray:none;stroke-opacity:1;paint-order:normal"
       id="path4847-9-41"
       cx="97.918404"
       cy="117.24326"
       inkscape:transform-center-x="-0.022335289"
       inkscape:transform-center-y="1.1109962e-05"
       rx="0.62540668"
       ry="0.56197101" />
    <ellipse
       style="fill:#fc9c01;fill-opacity:1;stroke:none;stroke-width:0.03111164;stroke-linecap:square;stroke-miterlimit:4;stroke-dasharray:none;stroke-opacity:1;paint-order:normal"
       id="path4847-9-3-6"
       cx="97.805305"
       cy="117.14476"
       inkscape:transform-center-x="-0.016699131"
       inkscape:transform-center-y="1.0684517e-05"
       rx="0.46758926"
       ry="0.42016116" />
    <ellipse
       style="fill:#ffc25c;fill-opacity:1;stroke:none;stroke-width:0.02184368;stroke-linecap:square;stroke-miterlimit:4;stroke-dasharray:none;stroke-opacity:1;paint-order:normal"
       id="path4847-9-3-8-6"
       cx="97.700874"
       cy="117.06815"
       inkscape:transform-center-x="-0.01172018"
       inkscape:transform-center-y="1.0381058e-06"
       rx="0.32829723"
       ry="0.29499766" />
    <path
       style="fill:#fc9c01;fill-opacity:1;stroke:none;stroke-width:0.05613982;stroke-linecap:butt;stroke-linejoin:miter;stroke-miterlimit:4;stroke-dasharray:none;stroke-opacity:1"
       d="m 104.58444,117.62187 c -0.1896,0.43986 -0.0993,1.10094 0.0997,1.86234 -0.61845,0.17308 -1.03317,0.0301 -1.30209,-0.33867 l 0.002,-0.0113 c 0.37036,-0.60088 0.7588,-1.14378 1.20005,-1.5124 z"
       id="path16811-7-02"
       inkscape:connector-curvature="0" />
    <path
       style="fill:#fc9c01;fill-opacity:1;stroke:none;stroke-width:0.05029678;stroke-linecap:butt;stroke-linejoin:miter;stroke-miterlimit:4;stroke-dasharray:none;stroke-opacity:1"
       d="m 101.27506,115.13129 c 0,0 -1.01083,5.42764 -2.177836,5.60752 -1.00811,0.11588 -2.95545,-2.43764 -2.95545,-2.43764 l 0.59017,3.70943 h -0.004 v 0.0222 l 0.17455,1.22088 c 0.0728,0.6433 2.03749,1.15469 4.388836,1.15511 2.35064,-6.6e-4 4.27497,-0.51201 4.34775,-1.15511 l 0.20642,-1.21258 v -0.0262 h 0.008 v 0.0275 l 0.67669,-3.65229 c 0,0 -2.08591,2.52889 -3.0586,2.34898 -1.24996,-0.23117 -2.19622,-5.60753 -2.19622,-5.60753 z"
       id="path4839-1-3"
       inkscape:connector-curvature="0"
       sodipodi:nodetypes="ccccccccccccccccc" />
    <ellipse
       style="fill:#ffc25c;fill-opacity:1;stroke:none;stroke-width:0.04038856;stroke-linecap:square;stroke-miterlimit:4;stroke-dasharray:none;stroke-opacity:1;paint-order:normal"
       id="path4847-3-3"
       cx="101.11604"
       cy="114.87238"
       inkscape:transform-center-x="-0.021678642"
       inkscape:transform-center-y="1.5615914e-05"
       rx="0.60701567"
       ry="0.54544544" />
    <ellipse
       style="fill:#ffffff;fill-opacity:1;stroke:none;stroke-width:0.02532213;stroke-linecap:square;stroke-miterlimit:4;stroke-dasharray:none;stroke-opacity:1;paint-order:normal"
       id="path4847-3-5-5"
       cx="100.93488"
       cy="114.72878"
       inkscape:transform-center-x="-0.013588722"
       inkscape:transform-center-y="2.1424622e-05"
       rx="0.3805764"
       ry="0.34197408" />
    <path
       style="fill:#ffc25c;fill-opacity:1;stroke:none;stroke-width:0.04085089;stroke-linecap:butt;stroke-linejoin:miter;stroke-miterlimit:4;stroke-dasharray:none;stroke-opacity:1"
       d="m 101.25671,116.08112 c 0,0 -0.92154,4.87504 -1.985466,5.0052 -0.91906,0.0838 -2.93546,-2.07522 -2.93546,-2.07522 l 0.23969,1.51328 h -0.004 v 0.016 l 0.15914,0.82925 c 0.0664,0.4655 2.39693,1.36166 4.540576,1.36197 2.143,-5e-4 4.52827,-0.86954 4.59461,-1.3349 l 0.18818,-0.82323 v -0.0188 h 0.007 v 0.0197 l 0.22576,-1.47195 c 0,0 -2.1414,2.11418 -3.02817,1.984 -1.13955,-0.16727 -2.00222,-5.00521 -2.00222,-5.00521 z"
       id="path4839-1-4-8"
       inkscape:connector-curvature="0"
       sodipodi:nodetypes="ccccccccccccccccc" />
    <path
       style="fill:#e96e04;fill-opacity:1;stroke:none;stroke-width:0.05921801;stroke-linecap:butt;stroke-linejoin:miter;stroke-miterlimit:4;stroke-dasharray:none;stroke-opacity:1"
       d="m 105.9258,122.16507 v -0.0372 c -3.51841,1.39231 -6.513436,1.04813 -9.296296,0 v 0.0273 l 0.17798,1.49181 c 0.0742,0.78604 2.07744,1.41079 4.474876,1.41131 2.39671,-8.2e-4 4.35877,-0.62551 4.43297,-1.41131 z"
       id="path4884-9-1"
       inkscape:connector-curvature="0"
       sodipodi:nodetypes="cccccccc" />
    <path
       style="fill:#ffc25c;fill-opacity:1;stroke:none;stroke-width:0.05921801;stroke-linecap:butt;stroke-linejoin:miter;stroke-miterlimit:4;stroke-dasharray:none;stroke-opacity:1"
       d="m 105.87088,122.32668 v 0 c -3.51841,1.39229 -6.409846,1.05235 -9.192696,0.004 v 0 l 0.11865,1.51823 c 0.0742,0.78604 2.07743,1.41079 4.474866,1.41131 2.39672,-8.2e-4 4.35878,-0.62551 4.43298,-1.41131 z"
       id="path4884-9-2-8"
       inkscape:connector-curvature="0"
       sodipodi:nodetypes="cccccccc" />
    <path
       style="fill:#fc9c01;fill-opacity:1;stroke:none;stroke-width:0.05921801;stroke-linecap:butt;stroke-linejoin:miter;stroke-miterlimit:4;stroke-dasharray:none;stroke-opacity:1"
       d="m 105.87057,122.5884 v 0 c -3.51841,1.3923 -6.409846,1.05236 -9.192696,0.004 v 0 l 0.11865,1.51823 c 0.0742,0.78604 2.07743,1.41079 4.474876,1.41131 2.39671,-8.2e-4 4.35877,-0.62551 4.43297,-1.41131 z"
       id="path4884-9-2-2-1"
       inkscape:connector-curvature="0"
       sodipodi:nodetypes="cccccccc" />
    <path
       style="fill:#ffc25c;fill-opacity:1;stroke:none;stroke-width:0.04544659;stroke-linecap:butt;stroke-linejoin:miter;stroke-miterlimit:4;stroke-dasharray:none;stroke-opacity:1"
       d="m 104.4029,123.31046 v 0 c -2.75814,1.04606 -5.024786,0.55391 -7.206306,-0.23286 v 0 l 0.093,1.14067 c 0.0582,0.59057 1.62853,1.05995 3.507926,1.06034 1.87882,-6.1e-4 3.41691,-0.23322 3.47507,-0.82362 z"
       id="path4884-9-2-2-9-13"
       inkscape:connector-curvature="0"
       sodipodi:nodetypes="cccccccc" />
    <ellipse
       style="fill:#fc9c01;fill-opacity:1;stroke:none;stroke-width:0.05613982;stroke-linecap:square;stroke-miterlimit:4;stroke-dasharray:none;stroke-opacity:1;paint-order:normal"
       id="path4847-1-07"
       cx="106.65394"
       cy="117.31128"
       inkscape:transform-center-x="-0.030131494"
       inkscape:transform-center-y="1.248777e-05"
       rx="0.84374768"
       ry="0.7581653" />
    <ellipse
       style="fill:#ffc25c;fill-opacity:1;stroke:none;stroke-width:0.04038856;stroke-linecap:square;stroke-miterlimit:4;stroke-dasharray:none;stroke-opacity:1;paint-order:normal"
       id="path4847-3-58-2"
       cx="106.49494"
       cy="117.17395"
       inkscape:transform-center-x="-0.021679461"
       rx="0.60701567"
       ry="0.54544544" />
    <ellipse
       style="fill:#ffffff;fill-opacity:1;stroke:none;stroke-width:0.02532213;stroke-linecap:square;stroke-miterlimit:4;stroke-dasharray:none;stroke-opacity:1;paint-order:normal"
       id="path4847-3-5-8-3"
       cx="106.31379"
       cy="117.03035"
       inkscape:transform-center-x="-0.013590219"
       inkscape:transform-center-y="6.1649427e-06"
       rx="0.3805764"
       ry="0.34197408" />
    <ellipse
       style="fill:#fc9c01;fill-opacity:1;stroke:none;stroke-width:0.05613982;stroke-linecap:square;stroke-miterlimit:4;stroke-dasharray:none;stroke-opacity:1;paint-order:normal"
       id="path4847-1-0-5"
       cx="95.941353"
       cy="117.12172"
       inkscape:transform-center-x="-0.030129082"
       rx="0.84374768"
       ry="0.7581653"
       inkscape:transform-center-y="2.7342338e-06" />
    <ellipse
       style="fill:#ffc25c;fill-opacity:1;stroke:none;stroke-width:0.04038856;stroke-linecap:square;stroke-miterlimit:4;stroke-dasharray:none;stroke-opacity:1;paint-order:normal"
       id="path4847-3-58-4-8"
       cx="95.782295"
       cy="116.98441"
       inkscape:transform-center-x="-0.021673235"
       inkscape:transform-center-y="6.1711553e-06"
       rx="0.60701567"
       ry="0.54544544" />
    <ellipse
       style="fill:#ffffff;fill-opacity:1;stroke:none;stroke-width:0.02532213;stroke-linecap:square;stroke-miterlimit:4;stroke-dasharray:none;stroke-opacity:1;paint-order:normal"
       id="path4847-3-5-8-0-3"
       cx="95.601204"
       cy="116.84081"
       inkscape:transform-center-x="-0.013587807"
       inkscape:transform-center-y="1.1979863e-05"
       rx="0.3805764"
       ry="0.34197408" />
    <ellipse
       style="fill:#e96e04;fill-opacity:1;stroke:none;stroke-width:0.04161223;stroke-linecap:square;stroke-miterlimit:4;stroke-dasharray:none;stroke-opacity:1;paint-order:normal"
       id="path4847-9-6-5"
       cx="104.6048"
       cy="117.29771"
       inkscape:transform-center-x="-0.022339752"
       inkscape:transform-center-y="1.9137206e-06"
       rx="0.62540668"
       ry="0.56197101" />
    <ellipse
       style="fill:#fc9c01;fill-opacity:1;stroke:none;stroke-width:0.03111164;stroke-linecap:square;stroke-miterlimit:4;stroke-dasharray:none;stroke-opacity:1;paint-order:normal"
       id="path4847-9-3-4-6"
       cx="104.49165"
       cy="117.19922"
       inkscape:transform-center-x="-0.01669215"
       inkscape:transform-center-y="1.4882752e-06"
       rx="0.46758926"
       ry="0.42016116" />
    <ellipse
       style="fill:#ffc25c;fill-opacity:1;stroke:none;stroke-width:0.02184368;stroke-linecap:square;stroke-miterlimit:4;stroke-dasharray:none;stroke-opacity:1;paint-order:normal"
       id="path4847-9-3-8-3-1"
       cx="104.38728"
       cy="117.1226"
       inkscape:transform-center-x="-0.011728457"
       inkscape:transform-center-y="-8.1581361e-06"
       rx="0.32829723"
       ry="0.29499766" />
    <path
       style="fill:url(#linearGradient17119-1);fill-opacity:1;stroke:none;stroke-width:0.01348754;stroke-linecap:butt;stroke-linejoin:miter;stroke-miterlimit:4;stroke-dasharray:none;stroke-opacity:1"
       d="m 97.992844,123.34523 0.079,1.52332 0.4598,0.15386 -0.0718,-1.53869 z"
       id="path17113-79"
       inkscape:connector-curvature="0" />
    <path
       style="fill:url(#linearGradient17119-8-7);fill-opacity:1;stroke:none;stroke-width:0.013183;stroke-linecap:butt;stroke-linejoin:miter;stroke-miterlimit:4;stroke-dasharray:none;stroke-opacity:1"
       d="m 98.664574,123.55296 0.0748,1.51422 0.31314,0.0706 -0.16859,-1.52973 z"
       id="path17113-7-2"
       inkscape:connector-curvature="0"
       sodipodi:nodetypes="ccccc" />
  </g>
</svg>
